<?xml version="1.0" standalone="no"?><svg xmlns:xlink="http://www.w3.org/1999/xlink" xmlns="http://www.w3.org/2000/svg" viewBox="0 0 1920 1120.00668355575" preserveAspectRatio="xMaxYMax slice"><g transform="scale(2.3589020293929024)"><rect x="0" y="0" width="813.9428571428571" height="542.6285714285714" fill="#ffffff"/><polygon points="0,0 67.83,67.83 0,67.83" fill="#585c69"/><polygon points="67.83,0 135.66,67.83 67.83,67.83" fill="#dedee1"/><path d="M 135.66 67.83 A 67.83 67.83 0 0 1  203.49 0 L 135.66 67.83 A 67.83 67.83 0 0 0 203.49 0" fill="#eaebec"/><path d="M 406.97 67.83 A 67.83 67.83 0 0 1  474.8 0 L 406.97 67.83 A 67.83 67.83 0 0 0 474.8 0" fill="#081b61"/><polygon points="474.8,0 542.63,67.83 474.8,67.83" fill="#293a77"/><polygon points="542.63,0 610.46,0 542.63,67.83" fill="#f4f5f6"/><polygon points="746.11,0 813.94,0 813.94,67.83" fill="#191e30"/><polygon points="339.14,67.83 339.14,135.66 271.31,135.66" fill="#223472"/><polygon points="406.97,67.83 474.8,67.83 474.8,135.66" fill="#2e3242"/><polygon points="610.46,67.83 678.2900000000001,67.83 678.2900000000001,135.66" fill="#aeb0b6"/><path d="M 678.29 67.83 A 67.83 67.83 0 0 1  746.12 135.66 L 678.29 67.83 A 67.83 67.83 0 0 0 746.12 135.66" fill="#33437d"/><polygon points="67.83,135.66 67.83,203.49 0,203.49" fill="#5b5e6b"/><path d="M 203.49 203.49 A 67.83 67.83 0 0 1  271.32 135.66 L 203.49 203.49 A 67.83 67.83 0 0 0 271.32 135.66" fill="#67739e"/><path d="M 339.14 135.66 A 67.83 67.83 0 0 1  406.96999999999997 203.49 L 339.14 135.66 A 67.83 67.83 0 0 0 406.96999999999997 203.49" fill="#01155d"/><polygon points="610.46,135.66 610.46,203.49 542.63,203.49" fill="#7984a9"/><path d="M 67.83 271.32 A 67.83 67.83 0 0 1  135.66 203.49 L 67.83 271.32 A 67.83 67.83 0 0 0 135.66 203.49" fill="#acaeb4"/><path d="M 135.66 203.49 A 67.83 67.83 0 0 1  203.49 271.32 L 135.66 203.49 A 67.83 67.83 0 0 0 203.49 271.32" fill="#203170"/><polygon points="406.97,203.49 474.8,203.49 474.8,271.32" fill="#0d2064"/><polygon points="678.29,203.49 746.12,203.49 678.29,271.32" fill="#727480"/><polygon points="406.96999999999997,271.31 406.96999999999997,339.14 339.14,339.14" fill="#556292"/><polygon points="67.83,339.14 135.66,339.14 67.83,406.96999999999997" fill="#797c86"/><path d="M 203.49 339.14 A 67.83 67.83 0 0 1  271.32 406.96999999999997 L 203.49 339.14 A 67.83 67.83 0 0 0 271.32 406.96999999999997" fill="#1e2f6f"/><polygon points="406.96999999999997,339.14 406.96999999999997,406.96999999999997 339.14,406.96999999999997" fill="#090d21"/><path d="M 542.63 339.14 A 67.83 67.83 0 0 1  610.46 406.96999999999997 L 542.63 339.14 A 67.83 67.83 0 0 0 610.46 406.96999999999997" fill="#04091c"/><path d="M 678.29 339.14 A 67.83 67.83 0 0 1  746.12 406.96999999999997 L 678.29 339.14 A 67.83 67.83 0 0 0 746.12 406.96999999999997" fill="#b6b8be"/><polygon points="67.83,406.97 135.66,406.97 67.83,474.8" fill="#c8ccdc"/><polygon points="135.66,406.97 203.49,406.97 203.49,474.8" fill="#64709c"/><path d="M 271.31 474.8 A 67.83 67.83 0 0 1  339.14 406.97 L 271.31 474.8 A 67.83 67.83 0 0 0 339.14 406.97" fill="#787a85"/><path d="M 339.14 474.8 A 67.83 67.83 0 0 1  406.96999999999997 406.97 L 339.14 474.8 A 67.83 67.83 0 0 0 406.96999999999997 406.97" fill="#707ba3"/><polygon points="542.63,406.97 610.46,406.97 542.63,474.8" fill="#273875"/><polygon points="746.12,406.97 746.12,474.8 678.29,474.8" fill="#505462"/><path d="M 746.11 406.97 A 67.83 67.83 0 0 1  813.94 474.8 L 746.11 406.97 A 67.83 67.83 0 0 0 813.94 474.8" fill="#203170"/><polygon points="0,474.8 67.83,474.8 67.83,542.63" fill="#343848"/><polygon points="474.8,474.8 542.63,474.8 474.8,542.63" fill="#102366"/><polygon points="678.29,474.8 746.12,542.63 678.29,542.63" fill="#68749e"/></g></svg>